#Comment line ignore any data following # character 
#Hierarchical Translation and Rotation (.htr) file 
[Header]	
#Header keywords are followed by a single value 
FileType HTR		#Single word string
DataType HTRS		#Translation followed by rotation and scale data
FileVersion 1		#integer
NumSegments 64		#integer
NumFrames 3		#integer
DataFrameRate 30		#integer, data frame rate in this file
EulerRotationOrder ZYX
CalibrationUnits mm
RotationUnits Degrees
GlobalAxisofGravity Y
BoneLengthAxis Y
ScaleFactor 1.00
[SegmentNames&Hierarchy]
#CHILD	PARENT
Pinger_Root GLOBAL
Pelvis Pinger_Root
L_Hip Pelvis
R_Hip Pelvis
Rear_Leg01 Pelvis
Spine1 Pelvis
L_Leg01 L_Hip
L_Leg02 L_Leg01
L_Leg03 L_Leg02
L_Foot L_Leg03
L_Toe1_01 L_Foot
L_Toe2_01 L_Foot
L_Toe3_01 L_Foot
planeAlignerLeft L_Foot
L_Toe1_02 L_Toe1_01
L_Toe1_03 L_Toe1_02
L_Toe2_02 L_Toe2_01
L_Toe2_03 L_Toe2_02
L_Toe3_02 L_Toe3_01
L_Toe3_03 L_Toe3_02
planeLockWeightLeft planeAlignerLeft
R_Leg01 R_Hip
R_Leg02 R_Leg01
R_Leg03 R_Leg02
R_Foot R_Leg03
planeAlignerRight R_Foot
R_Toe1_01 R_Foot
R_Toe2_01 R_Foot
R_Toe3_01 R_Foot
planeLockWeightRight planeAlignerRight
R_Toe1_02 R_Toe1_01
R_Toe1_03 R_Toe1_02
R_Toe2_02 R_Toe2_01
R_Toe2_03 R_Toe2_02
R_Toe3_02 R_Toe3_01
R_Toe3_03 R_Toe3_02
Rear_Leg02 Rear_Leg01
Rear_Leg03 Rear_Leg02
Rear_Leg04 Rear_Leg03
Rear_Foot Rear_Leg04
planeAlignerCenter Rear_Foot
Rear_Toe1_01 Rear_Foot
Rear_Toe2_01 Rear_Foot
Rear_Toe3_01 Rear_Foot
planeLockWeightCenter planeAlignerCenter
Rear_Toe1_02 Rear_Toe1_01
Rear_Toe1_03 Rear_Toe1_02
Rear_Toe2_02 Rear_Toe2_01
Rear_Toe2_03 Rear_Toe2_02
Rear_Toe3_02 Rear_Toe3_01
Rear_Toe3_03 Rear_Toe3_02
Back_Bone Spine1
Head Spine1
Motor_Bone Back_Bone
Ping_Mechanism Back_Bone
BN_LookIK Head
bottomMouth Head
L_Mouth01 Head
L_mouthFront Head
mouthGun Head
R_Mouth01 Head
R_mouthFront Head
TopMouth Head
weapon_bone Head
[BasePosition]
#SegmentName Tx, Ty, Tz, Rx, Ry, Rz, BoneLength
Pinger_Root 0.000000 0.000000 0.000000 -90.000000 0.000000 0.000000 10.000000 
Pelvis 0.000000 0.000000 0.000000 0.000000 0.000000 0.000000 10.000000 
L_Hip 0.000000 0.000000 0.000000 0.000000 0.000000 0.000000 10.000000 
R_Hip 0.000000 0.000000 0.000000 0.000000 0.000000 0.000000 10.000000 
Rear_Leg01 0.000000 0.000000 0.000000 0.000000 0.000000 0.000000 10.000000 
Spine1 0.000000 0.000000 0.000000 0.000000 0.000000 0.000000 10.000000 
L_Leg01 0.000000 0.000000 0.000000 0.000000 0.000000 0.000000 10.000000 
L_Leg02 0.000000 0.000000 0.000000 0.000000 0.000000 0.000000 10.000000 
L_Leg03 0.000000 0.000000 0.000000 0.000000 0.000000 0.000000 10.000000 
L_Foot 0.000000 0.000000 0.000000 0.000000 0.000000 0.000000 10.000000 
L_Toe1_01 0.000000 0.000000 0.000000 0.000000 0.000000 0.000000 10.000000 
L_Toe2_01 0.000000 0.000000 0.000000 0.000000 0.000000 0.000000 10.000000 
L_Toe3_01 0.000000 0.000000 0.000000 0.000000 0.000000 0.000000 10.000000 
planeAlignerLeft 0.000000 0.000000 0.000000 0.000000 0.000000 0.000000 10.000000 
L_Toe1_02 0.000000 0.000000 0.000000 0.000000 0.000000 0.000000 10.000000 
L_Toe1_03 0.000000 0.000000 0.000000 0.000000 0.000000 0.000000 10.000000 
L_Toe2_02 0.000000 0.000000 0.000000 0.000000 0.000000 0.000000 10.000000 
L_Toe2_03 0.000000 0.000000 0.000000 0.000000 0.000000 0.000000 10.000000 
L_Toe3_02 0.000000 0.000000 0.000000 0.000000 0.000000 0.000000 10.000000 
L_Toe3_03 0.000000 0.000000 0.000000 0.000000 0.000000 0.000000 10.000000 
planeLockWeightLeft 0.000000 0.000000 0.000000 0.000000 0.000000 0.000000 10.000000 
R_Leg01 0.000000 0.000000 0.000000 0.000000 0.000000 0.000000 10.000000 
R_Leg02 0.000000 0.000000 0.000000 0.000000 0.000000 0.000000 10.000000 
R_Leg03 0.000000 0.000000 0.000000 0.000000 0.000000 0.000000 10.000000 
R_Foot 0.000000 0.000000 0.000000 0.000000 0.000000 0.000000 10.000000 
planeAlignerRight 0.000000 0.000000 0.000000 0.000000 0.000000 0.000000 10.000000 
R_Toe1_01 0.000000 0.000000 0.000000 0.000000 0.000000 0.000000 10.000000 
R_Toe2_01 0.000000 0.000000 0.000000 0.000000 0.000000 0.000000 10.000000 
R_Toe3_01 0.000000 0.000000 0.000000 0.000000 0.000000 0.000000 10.000000 
planeLockWeightRight 0.000000 0.000000 0.000000 0.000000 0.000000 0.000000 10.000000 
R_Toe1_02 0.000000 0.000000 0.000000 0.000000 0.000000 0.000000 10.000000 
R_Toe1_03 0.000000 0.000000 0.000000 0.000000 0.000000 0.000000 10.000000 
R_Toe2_02 0.000000 0.000000 0.000000 0.000000 0.000000 0.000000 10.000000 
R_Toe2_03 0.000000 0.000000 0.000000 0.000000 0.000000 0.000000 10.000000 
R_Toe3_02 0.000000 0.000000 0.000000 0.000000 0.000000 0.000000 10.000000 
R_Toe3_03 0.000000 0.000000 0.000000 0.000000 0.000000 0.000000 10.000000 
Rear_Leg02 0.000000 0.000000 0.000000 0.000000 0.000000 0.000000 10.000000 
Rear_Leg03 0.000000 0.000000 0.000000 0.000000 0.000000 0.000000 10.000000 
Rear_Leg04 0.000000 0.000000 0.000000 0.000000 0.000000 0.000000 10.000000 
Rear_Foot 0.000000 0.000000 0.000000 0.000000 0.000000 0.000000 10.000000 
planeAlignerCenter 0.000000 0.000000 0.000000 0.000000 0.000000 0.000000 10.000000 
Rear_Toe1_01 0.000000 0.000000 0.000000 0.000000 0.000000 0.000000 10.000000 
Rear_Toe2_01 0.000000 0.000000 0.000000 0.000000 0.000000 0.000000 10.000000 
Rear_Toe3_01 0.000000 0.000000 0.000000 0.000000 0.000000 0.000000 10.000000 
planeLockWeightCenter 0.000000 0.000000 0.000000 0.000000 0.000000 0.000000 10.000000 
Rear_Toe1_02 0.000000 0.000000 0.000000 0.000000 0.000000 0.000000 10.000000 
Rear_Toe1_03 0.000000 0.000000 0.000000 0.000000 0.000000 0.000000 10.000000 
Rear_Toe2_02 0.000000 0.000000 0.000000 0.000000 0.000000 0.000000 10.000000 
Rear_Toe2_03 0.000000 0.000000 0.000000 0.000000 0.000000 0.000000 10.000000 
Rear_Toe3_02 0.000000 0.000000 0.000000 0.000000 0.000000 0.000000 10.000000 
Rear_Toe3_03 0.000000 0.000000 0.000000 0.000000 0.000000 0.000000 10.000000 
Back_Bone 0.000000 0.000000 0.000000 0.000000 0.000000 0.000000 10.000000 
Head 0.000000 0.000000 0.000000 0.000000 0.000000 0.000000 10.000000 
Motor_Bone 0.000000 0.000000 0.000000 0.000000 0.000000 0.000000 10.000000 
Ping_Mechanism 0.000000 0.000000 0.000000 0.000000 0.000000 0.000000 10.000000 
BN_LookIK 0.000000 0.000000 0.000000 0.000000 0.000000 0.000000 10.000000 
bottomMouth 0.000000 0.000000 0.000000 0.000000 0.000000 0.000000 10.000000 
L_Mouth01 0.000000 0.000000 0.000000 0.000000 0.000000 0.000000 10.000000 
L_mouthFront 0.000000 0.000000 0.000000 0.000000 0.000000 0.000000 10.000000 
mouthGun 0.000000 0.000000 0.000000 0.000000 0.000000 0.000000 10.000000 
R_Mouth01 0.000000 0.000000 0.000000 0.000000 0.000000 0.000000 10.000000 
R_mouthFront 0.000000 0.000000 0.000000 0.000000 0.000000 0.000000 10.000000 
TopMouth 0.000000 0.000000 0.000000 0.000000 0.000000 0.000000 10.000000 
weapon_bone 0.000000 0.000000 0.000000 0.000000 0.000000 0.000000 10.000000 
#Beginning of Data. Separated by tabs
#Fr	Tx	Ty	Tz	Rx	Ry	Rz	SF
[Pinger_Root]
132 0.000000 0.000000 0.000000 -0.000075 -0.000000 -0.000020 0.000000
133 0.000000 0.000000 0.000000 -0.000075 -0.000000 -0.000020 0.000000
134 0.000000 0.000000 0.000000 -0.000075 -0.000000 -0.000020 0.000000
[Pelvis]
132 -108.866692 977.407410 3809.633789 -151.816650 -81.568741 144.431244 3934.524902
133 -109.877388 978.147888 3809.250000 -153.905228 -80.962425 146.544952 3934.365723
134 -110.888062 978.888245 3808.866699 -153.905380 -80.962410 146.545105 3934.206787
[L_Hip]
132 5.766392 125.831482 872.656799 128.110489 -46.247726 174.678513 881.701050
133 5.766392 125.831482 872.656799 128.120605 -46.244350 174.662399 881.701050
134 5.766392 125.831482 872.656799 128.130737 -46.240982 174.646317 881.701050
[R_Hip]
132 5.765438 125.836372 -872.654907 37.053505 50.476112 124.357285 881.699829
133 5.765438 125.836372 -872.654907 37.054577 50.475517 124.358620 881.699829
134 5.765438 125.836372 -872.654907 37.055626 50.474899 124.359947 881.699829
[Rear_Leg01]
132 -192.298416 -925.602966 -0.001907 167.703217 -0.843205 -154.084396 945.367432
133 -192.298416 -925.602966 -0.001907 167.395630 -1.484953 -154.058228 945.367432
134 -192.298416 -925.602966 -0.001907 167.398331 -1.475721 -154.055923 945.367432
[Spine1]
132 290.604584 5.007505 0.000477 9.470216 4.481872 19.155598 290.647736
133 290.604584 5.007505 0.000477 9.695617 5.083539 19.172476 290.647736
134 290.604584 5.007505 0.000477 9.695536 5.073834 19.170834 290.647736
[L_Leg01]
132 761.932007 -0.002384 -0.069261 54.066216 -35.962650 21.296627 761.932068
133 761.932007 -0.002384 -0.069261 54.109161 -35.720715 22.276527 761.932068
134 761.932007 -0.002384 -0.069261 54.102371 -35.731407 22.283331 761.932068
[L_Leg02]
132 1441.140503 -0.000954 -0.000715 8.370071 4.588571 -139.137985 1441.140503
133 1441.140503 -0.000954 -0.000715 8.435179 4.702208 -140.127258 1441.140503
134 1441.140503 -0.000954 -0.000715 8.440890 4.711359 -140.209366 1441.140503
[L_Leg03]
132 1686.963989 -0.000715 -0.000954 -0.137971 0.092489 148.011017 1686.963989
133 1686.963989 -0.000715 -0.000954 -0.142515 0.091453 148.273361 1686.963989
134 1686.963989 -0.000715 -0.000954 -0.142534 0.091568 148.286331 1686.963989
[L_Foot]
132 3041.570068 -30.715107 11.297464 -14.864094 45.140335 34.600273 3041.746094
133 3041.570068 -30.715107 11.297464 -15.120741 45.013306 34.784992 3041.746094
134 3041.570068 -30.715107 11.297464 -15.097781 45.013268 34.825420 3041.746094
[L_Toe1_01]
132 -188.216690 -224.732346 -21.137953 95.648712 -5.532327 169.237228 293.899567
133 -188.216690 -224.732346 -21.137953 95.648682 -5.532498 169.238190 293.899567
134 -188.216690 -224.732346 -21.137953 95.648628 -5.532669 169.239136 293.899567
[L_Toe2_01]
132 200.746536 -219.926590 148.838394 -96.557747 -26.052656 -37.624844 332.896027
133 200.746536 -219.926590 148.838394 -96.557419 -26.052692 -37.625599 332.896027
134 200.746536 -219.926590 148.838394 -96.557106 -26.052731 -37.626358 332.896027
[L_Toe3_01]
132 188.832520 -219.859131 -191.078659 -96.723801 17.878834 -55.947784 347.140900
133 188.832520 -219.859131 -191.078659 -96.723915 17.878550 -55.948490 347.140900
134 188.832520 -219.859131 -191.078659 -96.724022 17.878265 -55.949196 347.140900
[planeAlignerLeft]
132 0.812531 -811.448792 -0.314951 0.000000 -90.000000 -90.001900 811.449280
133 0.812531 -811.448792 -0.314951 0.000000 -90.000000 -90.001900 811.449280
134 0.812531 -811.448792 -0.314951 0.000000 -90.000000 -90.001900 811.449280
[L_Toe1_02]
132 413.761139 0.000477 0.000000 0.001442 -18.930540 0.001442 413.761139
133 413.761139 0.000477 0.000000 0.001442 -18.931450 0.001442 413.761139
134 413.761139 0.000477 0.000000 0.001442 -18.932364 0.001442 413.761139
[L_Toe1_03]
132 464.317322 0.000358 -0.000089 -179.986069 85.798912 -179.982574 464.317322
133 464.317322 0.000358 -0.000089 -179.986069 85.799980 -179.982559 464.317322
134 464.317322 0.000358 -0.000089 -179.986053 85.800919 -179.982559 464.317322
[L_Toe2_02]
132 342.235809 -0.000477 0.000238 0.004685 -80.874451 0.004685 342.235809
133 342.235809 -0.000477 0.000238 0.004685 -80.873375 0.004685 342.235809
134 342.235809 -0.000477 0.000238 0.004685 -80.872322 0.004685 342.235809
[L_Toe2_03]
132 420.210846 -0.000715 0.000000 179.992340 55.876869 179.999664 420.210846
133 420.210846 -0.000715 0.000000 179.992340 55.877804 179.999664 420.210846
134 420.210846 -0.000715 0.000000 179.992340 55.878742 179.999664 420.210846
[L_Toe3_02]
132 329.270111 0.000954 0.000000 0.004675 -84.671822 0.004675 329.270111
133 329.270111 0.000954 0.000000 0.004675 -84.671783 0.004675 329.270111
134 329.270111 0.000954 0.000000 0.004675 -84.671715 0.004675 329.270111
[L_Toe3_03]
132 439.137451 -0.001907 0.000954 179.993134 45.356789 -179.999313 439.137451
133 439.137451 -0.001907 0.000954 179.993134 45.357868 -179.999313 439.137451
134 439.137451 -0.001907 0.000954 179.993134 45.358955 -179.999313 439.137451
[planeLockWeightLeft]
132 -0.000954 0.000238 -0.000305 -0.011826 -0.004376 0.005620 0.001029
133 -0.000954 0.000238 -0.000305 -0.011826 -0.004376 0.005620 0.001029
134 -0.000954 0.000238 -0.000305 -0.011826 -0.004376 0.005620 0.001029
[R_Leg01]
132 761.455627 -0.001907 -0.000358 122.729622 -15.895956 33.221497 761.455688
133 761.455627 -0.001907 -0.000358 122.933281 -15.680380 34.193340 761.455688
134 761.455627 -0.001907 -0.000358 122.929756 -15.674603 34.185226 761.455688
[R_Leg02]
132 1441.140625 0.000000 -0.000238 -2.043753 -0.566286 -138.869980 1441.140625
133 1441.140625 0.000000 -0.000238 -2.005419 -0.541044 -137.690338 1441.140625
134 1441.140625 0.000000 -0.000238 -2.005301 -0.541064 -137.688858 1441.140625
[R_Leg03]
132 1686.963989 0.000954 0.001431 0.093209 -0.054891 136.124237 1686.963989
133 1686.963989 0.000954 0.001431 0.093329 -0.054687 135.873520 1686.963989
134 1686.963989 0.000954 0.001431 0.093328 -0.054688 135.874374 1686.963989
[R_Foot]
132 3041.560059 -30.531288 -11.204481 3.928731 -24.212103 59.808701 3041.734131
133 3041.560059 -30.531288 -11.204481 3.833936 -24.247610 59.531601 3041.734131
134 3041.560059 -30.531288 -11.204481 3.845790 -24.247341 59.527485 3041.734131
[planeAlignerRight]
132 -0.635147 -812.270569 -0.364304 0.000000 -89.960434 -90.005180 812.270874
133 -0.635147 -812.270569 -0.364304 0.000000 -89.960434 -90.005180 812.270874
134 -0.635147 -812.270569 -0.364304 0.000000 -89.960434 -90.005180 812.270874
[R_Toe1_01]
132 -188.383347 -224.864899 21.052242 77.186668 -3.250678 172.304703 294.101532
133 -188.383347 -224.864899 21.052242 77.186623 -3.250562 172.305130 294.101532
134 -188.383347 -224.864899 21.052242 77.186577 -3.250447 172.305573 294.101532
[R_Toe2_01]
132 200.637817 -220.002121 -148.787384 -84.909302 32.506184 -46.596916 332.857574
133 200.637817 -220.002121 -148.787384 -84.909599 32.506176 -46.597496 332.857574
134 200.637817 -220.002121 -148.787384 -84.909912 32.506157 -46.598080 332.857574
[R_Toe3_01]
132 188.606735 -220.092957 191.126343 -74.389885 -14.487526 -66.158051 347.192566
133 188.606735 -220.092957 191.126343 -74.389885 -14.487298 -66.158508 347.192566
134 188.606735 -220.092957 191.126343 -74.389893 -14.487076 -66.159004 347.192566
[planeLockWeightRight]
132 -0.000477 0.000000 0.000000 -0.011823 -0.004379 -0.000027 0.000477
133 -0.000477 0.000000 0.000000 -0.011823 -0.004379 -0.000027 0.000477
134 -0.000477 0.000000 0.000000 -0.011823 -0.004379 -0.000027 0.000477
[R_Toe1_02]
132 413.762085 0.000477 -0.000119 0.001470 -15.986188 0.001470 413.762085
133 413.762085 0.000477 -0.000119 0.001470 -15.986823 0.001470 413.762085
134 413.762085 0.000477 -0.000119 0.001470 -15.987458 0.001470 413.762085
[R_Toe1_03]
132 464.317810 0.000000 0.001088 -179.996872 76.501587 -179.993347 464.317810
133 464.317810 0.000000 0.001088 -179.996872 76.502045 -179.993347 464.317810
134 464.317810 0.000000 0.001088 -179.996872 76.502472 -179.993347 464.317810
[R_Toe2_02]
132 342.234741 -0.000954 0.000238 -0.002332 -79.703545 -0.002332 342.234741
133 342.234741 -0.000954 0.000238 -0.002332 -79.703011 -0.002332 342.234741
134 342.234741 -0.000954 0.000238 -0.002332 -79.702469 -0.002332 342.234741
[R_Toe2_03]
132 420.210846 0.000715 -0.000268 -179.995560 65.020340 -179.999130 420.210846
133 420.210846 0.000715 -0.000268 -179.995560 65.020775 -179.999130 420.210846
134 420.210846 0.000715 -0.000268 -179.995560 65.021202 -179.999130 420.210846
[R_Toe3_02]
132 329.270355 -0.000477 -0.000954 0.001175 -83.672745 0.001175 329.270355
133 329.270355 -0.000477 -0.000954 0.001175 -83.672348 0.001175 329.270355
134 329.270355 -0.000477 -0.000954 0.001175 -83.671906 0.001175 329.270355
[R_Toe3_03]
132 439.137939 0.000238 0.001431 -179.994339 60.992970 -179.987106 439.137939
133 439.137939 0.000238 0.001431 -179.994339 60.993496 -179.987106 439.137939
134 439.137939 0.000238 0.001431 -179.994339 60.994026 -179.987106 439.137939
[Rear_Leg02]
132 1162.777710 -0.029802 0.005960 1.563848 -2.522992 -143.977890 1162.777710
133 1162.777710 -0.029802 0.005960 1.563914 -2.522866 -143.979309 1162.777710
134 1162.777710 -0.029802 0.005960 1.563979 -2.522739 -143.980728 1162.777710
[Rear_Leg03]
132 607.192505 -0.013351 -0.073195 0.010359 -0.005370 71.156715 607.192505
133 607.192505 -0.013351 -0.073195 0.010357 -0.005374 71.197227 607.192505
134 607.192505 -0.013351 -0.073195 0.010357 -0.005374 71.199181 607.192505
[Rear_Leg04]
132 995.874512 -0.020504 -0.011921 -0.041128 -0.016658 73.262238 995.874573
133 995.874512 -0.020504 -0.011921 -0.041128 -0.016658 73.264069 995.874573
134 995.874512 -0.020504 -0.011921 -0.041128 -0.016657 73.265862 995.874573
[Rear_Foot]
132 3096.176270 -0.067472 -0.041425 -120.753319 87.344215 76.996712 3096.176270
133 3096.176270 -0.067472 -0.041425 -122.202728 87.303543 75.584900 3096.176270
134 3096.176270 -0.067472 -0.041425 -122.045990 87.308769 75.746582 3096.176270
[planeAlignerCenter]
132 0.350077 0.966311 -838.790894 0.000009 0.000003 -179.999985 838.791565
133 0.350077 0.966311 -838.790894 0.000009 0.000003 -179.999985 838.791565
134 0.350077 0.966311 -838.790894 0.000009 0.000003 -179.999985 838.791565
[Rear_Toe1_01]
132 0.653352 83.966492 -371.173737 0.292173 41.138859 90.406425 380.553192
133 0.653352 83.966492 -371.173737 0.292191 41.138885 90.406425 380.553192
134 0.653352 83.966492 -371.173737 0.292212 41.138905 90.406425 380.553192
[Rear_Toe2_01]
132 178.200760 -294.826019 -362.060547 -7.262382 33.854816 -66.230019 499.765686
133 178.200760 -294.826019 -362.060547 -7.262401 33.854843 -66.230026 499.765686
134 178.200760 -294.826019 -362.060547 -7.262422 33.854866 -66.230034 499.765686
[Rear_Toe3_01]
132 -153.359680 -308.780914 -362.060852 3.322300 32.989574 -112.582558 499.952881
133 -153.359680 -308.780914 -362.060852 3.322300 32.989574 -112.582558 499.952881
134 -153.359680 -308.780914 -362.060852 3.322300 32.989574 -112.582558 499.952881
[planeLockWeightCenter]
132 -0.000062 0.000238 0.000000 -0.011814 -0.004373 -0.000015 0.000246
133 -0.000062 0.000238 0.000000 -0.011814 -0.004373 -0.000015 0.000246
134 -0.000062 0.000238 0.000000 -0.011814 -0.004373 -0.000015 0.000246
[Rear_Toe1_02]
132 379.707825 0.194073 0.000477 -0.000261 -31.944164 0.006945 379.707855
133 379.707825 0.194073 0.000477 -0.000261 -31.944153 0.006945 379.707855
134 379.707825 0.194073 0.000477 -0.000261 -31.944153 0.006945 379.707855
[Rear_Toe1_03]
132 500.129700 0.165701 0.000119 0.000045 53.309292 0.007413 500.129761
133 500.129700 0.165701 0.000119 0.000045 53.309292 0.007413 500.129761
134 500.129700 0.165701 0.000119 0.000045 53.309292 0.007413 500.129761
[Rear_Toe2_02]
132 340.494507 0.000238 -0.000954 0.001191 -70.483078 0.001191 340.494507
133 340.494507 0.000238 -0.000954 0.001191 -70.483078 0.001191 340.494507
134 340.494507 0.000238 -0.000954 0.001191 -70.483078 0.001191 340.494507
[Rear_Toe2_03]
132 433.103577 0.000000 0.000238 0.007023 70.761604 0.007023 433.103546
133 433.103577 0.000000 0.000238 0.007023 70.761559 0.007023 433.103546
134 433.103577 0.000000 0.000238 0.007023 70.761528 0.007023 433.103546
[Rear_Toe3_02]
132 340.494141 -0.000358 -0.000477 0.006457 -67.923401 -0.006616 340.494171
133 340.494141 -0.000358 -0.000477 0.006497 -67.923424 -0.006676 340.494171
134 340.494141 -0.000358 -0.000477 0.006538 -67.923424 -0.006735 340.494171
[Rear_Toe3_03]
132 433.103577 0.001431 -0.000238 0.005868 66.924324 0.005868 433.103546
133 433.103577 0.001431 -0.000238 0.005868 66.924286 0.005868 433.103546
134 433.103577 0.001431 -0.000238 0.005868 66.924255 0.005868 433.103546
[Back_Bone]
132 1312.175781 -701.934692 0.000954 1.463948 0.137876 -93.033653 1488.125488
133 1312.175781 -701.934692 0.000954 1.464492 0.183365 -93.033028 1488.125488
134 1312.175781 -701.934692 0.000954 1.464496 0.180574 -93.032242 1488.125488
[Head]
132 1406.159424 809.709290 0.001431 2.259356 -10.458497 7.186350 1622.625488
133 1406.159424 809.709290 0.001431 2.568509 -10.456877 8.343597 1622.625488
134 1406.159424 809.709290 0.001431 2.707361 -10.456637 10.051962 1622.625488
[Motor_Bone]
132 1158.364380 -417.834747 0.000477 -0.000105 0.000046 -105.985291 1231.419434
133 1158.364380 -417.834747 0.000477 -0.000105 0.000046 -105.985291 1231.419434
134 1158.364380 -417.834747 0.000477 -0.000105 0.000046 -105.985291 1231.419434
[Ping_Mechanism]
132 1239.736450 -439.140350 -33.815086 0.000103 -0.000053 82.120995 1315.649658
133 1240.277222 -438.928558 -37.260918 0.000103 -0.000053 82.120995 1316.181641
134 1240.276367 -438.933716 -37.260902 0.000103 -0.000053 82.120995 1316.182617
[BN_LookIK]
132 193.241119 1380.371704 -0.002861 0.000000 89.965736 -31.038179 1393.832153
133 193.241119 1380.371704 -0.002861 0.000000 89.965736 -31.038179 1393.832153
134 193.241119 1380.371704 -0.002861 0.000000 89.965736 -31.038179 1393.832153
[bottomMouth]
132 -435.092926 615.759399 -0.000954 -0.000022 0.000016 73.527184 753.966492
133 -435.092926 615.759399 -0.000954 -0.000022 0.000016 73.527184 753.966492
134 -435.092926 615.759399 -0.000954 -0.000022 0.000016 73.527184 753.966492
[L_Mouth01]
132 554.440979 7.658243 838.222046 150.204178 23.759130 109.605339 1005.027161
133 554.440979 7.658243 838.222046 150.204178 23.759130 109.605339 1005.027161
134 554.440979 7.658243 838.222046 150.204178 23.759130 109.605339 1005.027161
[L_mouthFront]
132 551.629089 934.514771 339.150421 0.000081 2.804060 79.119301 1136.941284
133 551.629089 934.514771 339.150421 0.000081 2.804060 79.119301 1136.941284
134 551.629089 934.514771 339.150421 0.000081 2.804060 79.119301 1136.941284
[mouthGun]
132 55.332661 1627.420898 0.000000 0.000023 0.000009 -11.038128 1628.361328
133 55.332661 1627.420898 0.000000 0.000023 0.000009 -11.038128 1628.361328
134 55.332661 1627.420898 0.000000 0.000023 0.000009 -11.038128 1628.361328
[R_Mouth01]
132 554.442383 7.659197 -838.223938 29.795891 -23.759109 109.605331 1005.029541
133 554.442383 7.659197 -838.223938 29.795891 -23.759109 109.605331 1005.029541
134 554.442383 7.659197 -838.223938 29.795891 -23.759109 109.605331 1005.029541
[R_mouthFront]
132 551.629089 934.514282 -339.151367 0.000029 -2.803930 79.119133 1136.941162
133 551.629089 934.514282 -339.151367 0.000029 -2.803930 79.119133 1136.941162
134 551.629089 934.514282 -339.151367 0.000029 -2.803930 79.119133 1136.941162
[TopMouth]
132 461.269867 -56.106091 -0.008583 -0.000059 -0.000268 92.025169 464.669525
133 461.269867 -56.106091 -0.008583 -0.000059 -0.000268 92.025169 464.669525
134 461.269867 -56.106091 -0.008583 -0.000059 -0.000268 92.025169 464.669525
[weapon_bone]
132 -987.239868 1448.372803 0.001431 0.000000 89.965736 -31.038221 1752.833740
133 -987.239868 1448.372803 0.001431 0.000000 89.965736 -31.038221 1752.833740
134 -987.239868 1448.372803 0.001431 0.000000 89.965736 -31.038221 1752.833740
